<svg height="480pt" viewBox="0 -12 480 480" width="480pt" xmlns="http://www.w3.org/2000/svg"><path d="m408 200h-336c-2.371094 0-4.621094-1.050781-6.144531-2.875-1.519531-1.820312-2.152344-4.222656-1.726563-6.558594l27.199219-149.75c3.492187-19.011718 20.0625-32.8125 39.390625-32.816406h37.28125c4.417969 0 8 3.582031 8 8s-3.582031 8-8 8h-37.28125c-11.601562 0-21.550781 8.285156-23.65625 19.695312l-25.460938 140.304688h316.796876l-25.46875-140.328125c-2.109376-11.402344-12.054688-19.675781-23.648438-19.671875h-37.28125c-4.417969 0-8-3.582031-8-8s3.582031-8 8-8h37.28125c19.320312 0 35.890625 13.796875 39.382812 32.800781l27.199219 149.773438c.421875 2.332031-.210937 4.730469-1.730469 6.550781-1.515624 1.820312-3.761718 2.871094-6.132812 2.875zm0 0" fill="#ffb655"/><path d="m179 368 5 80h112l5-80zm0 0" fill="#ffb655"/><path d="m312 192-16 256h69.601562c24.207032 0 44.628907-18.027344 47.628907-42.046875l26.769531-213.953125zm0 0" fill="#ffc477"/><path d="m62 368h117l-11-176h-128l26.742188 213.953125c3.003906 24.03125 23.441406 42.058594 47.65625 42.046875h69.601562l-5-80zm0 0" fill="#ffc477"/><path d="m173 272h134l5-80h-144zm0 0" fill="#ffb655"/><path d="m179 368h122l6-96h-134zm0 0" fill="#ffb655"/><g fill="#ff7956"><path d="m296 456h-.503906c-2.121094-.128906-4.105469-1.097656-5.511719-2.691406s-2.121094-3.683594-1.984375-5.804688l16-256c.308594-4.402344 4.089844-7.742187 8.496094-7.503906 2.125.128906 4.109375 1.09375 5.515625 2.691406 1.410156 1.59375 2.125 3.683594 1.988281 5.804688l-16 256c-.261719 4.222656-3.769531 7.511718-8 7.503906zm0 0"/><path d="m184 456c-4.230469.007812-7.738281-3.28125-8-7.503906l-16-256c-.273438-4.417969 3.085938-8.222656 7.503906-8.496094 4.417969-.273438 8.222656 3.085938 8.496094 7.503906l16 256c.136719 2.121094-.578125 4.210938-1.988281 5.804688-1.40625 1.597656-3.390625 2.5625-5.515625 2.691406zm0 0"/><path d="m430 280h-380c-4.417969 0-8-3.582031-8-8s3.582031-8 8-8h380c4.417969 0 8 3.582031 8 8s-3.582031 8-8 8zm0 0"/><path d="m418 376h-356c-4.417969 0-8-3.582031-8-8s3.582031-8 8-8h356c4.417969 0 8 3.582031 8 8s-3.582031 8-8 8zm0 0"/><path d="m176 32h128c4.417969 0 8-3.582031 8-8v-16c0-4.417969-3.582031-8-8-8h-128c-4.417969 0-8 3.582031-8 8v16c0 4.417969 3.582031 8 8 8zm0 0"/><path d="m365.601562 456h-251.203124c-28.226563-.035156-52.03125-21.046875-55.566407-49.054688l-26.769531-213.953124c-.28125-2.277344.421875-4.566407 1.941406-6.285157 1.519532-1.722656 3.703125-2.707031 5.996094-2.707031h400c2.292969 0 4.476562.984375 5.996094 2.707031 1.519531 1.71875 2.222656 4.007813 1.941406 6.285157l-26.746094 213.953124c-3.535156 28.015626-27.351562 49.03125-55.589844 49.054688zm-316.539062-256 25.601562 204.960938c2.53125 20.019531 19.554688 35.03125 39.734376 35.039062h251.203124c20.164063-.027344 37.164063-15.035156 39.695313-35.039062l25.640625-204.960938zm0 0"/></g><path d="m472 200h-464c-4.417969 0-8-3.582031-8-8s3.582031-8 8-8h464c4.417969 0 8 3.582031 8 8s-3.582031 8-8 8zm0 0" fill="#ff6243"/></svg>