<?xml version="1.0" encoding="iso-8859-1"?>
<!-- Generator: Adobe Illustrator 19.0.0, SVG Export Plug-In . SVG Version: 6.00 Build 0)  -->
<svg version="1.1" id="Capa_1" xmlns="http://www.w3.org/2000/svg" xmlns:xlink="http://www.w3.org/1999/xlink" x="0px" y="0px"
	 viewBox="0 0 415.2 415.2" style="enable-background:new 0 0 415.2 415.2;" xml:space="preserve">
<g>
	<path style="fill:#C1D963;" d="M148.474,103.2c-28.8,0-60-23.2-92-68l-12-17.6l20.8,4.8c29.6,7.2,85.6,22.4,122.4,51.2l7.2,5.6
		l-7.2,7.2C177.274,96.8,162.874,103.2,148.474,103.2z"/>
	<path style="fill:#C1D963;" d="M178.874,68c-31.2-19.2-64.8-33.6-100-41.6l0.8-16c11.2-2.4,23.2-3.2,34.4-3.2
		c27.2,0,48,7.2,61.6,20c8,8.8,13.6,20,15.2,32l3.2,18.4L178.874,68z"/>
	<path style="fill:#C1D963;" d="M349.274,167.2c-16-17.6-41.6-27.2-74.4-27.2c-20.8,0-40.8,3.2-60.8,8.8h-0.8
		c-20-5.6-40-8.8-60.8-8.8c-33.6,0-58.4,8.8-74.4,27.2s-24,47.2-20,84c11.2,113.6,64.8,153.6,112,153.6c16,0,31.2-4.8,44-14.4
		c12.8,9.6,28,14.4,44,14.4c47.2,0,101.6-40,112-153.6C373.274,214.4,366.074,185.6,349.274,167.2z"/>
</g>
<path style="fill:#1B1300;" d="M274.874,132.8c-17.6,0-36,2.4-53.6,6.4c-0.8-30.4,6.4-60.8,19.2-88c2.4-4,0.8-8.8-3.2-11.2
	c-4-2.4-8.8-0.8-11.2,3.2c-7.2,13.6-12,28-15.2,43.2c-3.2-4-7.2-7.2-10.4-11.2c0.8-19.2-6.4-38.4-19.2-52.8
	c-14.4-15.2-37.6-22.4-67.2-22.4c-24.8,0.8-48.8,4.8-72,12c0,0-0.8,0-0.8,0.8c-0.8,0-0.8,0.8-1.6,0.8l-0.8,0.8
	c-0.8,0.8-0.8,0.8-0.8,1.6c0,0,0,0.8-0.8,0.8s0,0.8,0,0.8v0.8c0,0.8,0,0.8,0,1.6c0,0.8,0,0.8,0,1.6c0,0.8,0.8,1.6,0.8,2.4v0.8
	c37.6,58.4,75.2,88,110.4,88c17.6,0,33.6-7.2,45.6-20c4.8,4.8,8.8,10.4,12.8,16v0.8c-1.6,10.4-1.6,20.8-1.6,31.2
	c-17.6-4-35.2-6.4-52.8-6.4c-36,0-62.4,9.6-80.8,29.6s-26.4,50.4-22.4,90.4c11.2,118.4,69.6,160.8,120,160.8c15.2,0,30.4-4,44-12.8
	c12.8,8,28,12.8,44,12.8l0,0c50.4,0,108.8-42.4,120-160.8c4-39.2-4-69.6-22.4-90.4S310.074,132.8,274.874,132.8z M148.474,95.2
	c-26.4,0-55.2-22.4-85.6-64c28.8,6.4,84,22.4,119.2,49.6C173.274,89.6,161.274,95.2,148.474,95.2L148.474,95.2z M80.474,19.2
	c11.2-1.6,22.4-3.2,33.6-3.2c25.6,0,44,6.4,56,18.4c7.2,8,12,17.6,13.6,28C151.674,41.6,117.274,27.2,80.474,19.2z M361.274,250.4
	c-10.4,108-60.8,146.4-104,146.4c-13.6,0-28-4-39.2-12.8c-3.2-2.4-7.2-2.4-9.6,0c-11.2,8-24.8,12.8-39.2,12.8
	c-43.2,0-93.6-38.4-104-146.4c-3.2-34.4,3.2-60.8,18.4-77.6c15.2-16.8,37.6-24,68.8-24c20,0,39.2,3.2,58.4,8.8c0.8,0,1.6,0,2.4,0
	h0.8h0.8h0.8c19.2-5.6,38.4-8,58.4-8.8c31.2,0,54.4,8,68.8,24S364.474,216,361.274,250.4L361.274,250.4z"/>
<path style="fill:#FFFFFF;" d="M129.274,168.8c-27.2,10.4-43.2,37.6-40.8,66.4c0.8,4,4,7.2,8,7.2h0.8c4-0.8,7.2-4,7.2-8.8l0,0
	c-2.4-21.6,10.4-41.6,30.4-49.6c4-1.6,6.4-6.4,4.8-10.4S133.274,167.2,129.274,168.8L129.274,168.8L129.274,168.8z"/>
<g>
</g>
<g>
</g>
<g>
</g>
<g>
</g>
<g>
</g>
<g>
</g>
<g>
</g>
<g>
</g>
<g>
</g>
<g>
</g>
<g>
</g>
<g>
</g>
<g>
</g>
<g>
</g>
<g>
</g>
</svg>
